<svg width="26" height="26" viewBox="0 0 26 26" fill="none" xmlns="http://www.w3.org/2000/svg">
<path d="M12.2927 23.7584C9.03626 21.8726 6.66204 18.7698 5.69073 15.1304C4.71942 11.491 5.2303 7.61206 7.11135 4.34424C7.6747 3.36848 8.60184 2.65603 9.68879 2.36363C10.7757 2.07123 11.9335 2.22282 12.9073 2.78506C13.1144 2.90254 13.3095 3.04015 13.4896 3.1959C13.6687 3.33799 13.8333 3.49734 13.9812 3.67168C14.0857 3.79347 14.1566 3.9405 14.1868 4.09825C14.2171 4.25599 14.2057 4.41898 14.1537 4.57109L12.4767 10.0013C12.431 10.1486 12.3491 10.2821 12.2387 10.3897C12.1282 10.4973 11.9926 10.5756 11.8443 10.6173C11.6759 10.6694 11.6633 10.6728 10.386 10.6178C10.1744 12.8 10.7526 14.9843 12.0152 16.7732C13.1067 16.081 13.1193 16.0776 13.2911 16.0381C13.4403 15.9998 13.5967 15.9995 13.7459 16.0373C13.8952 16.075 14.0325 16.1496 14.1455 16.2542L18.3022 20.115C18.4164 20.2219 18.5016 20.3561 18.5496 20.5051C18.5976 20.6541 18.607 20.813 18.5768 20.9667C18.5345 21.1955 18.4725 21.4201 18.3913 21.6381C18.3074 21.8577 18.2061 22.0702 18.0883 22.2736C17.5126 23.2367 16.5801 23.9334 15.4943 24.2116C14.4085 24.4898 13.2575 24.3269 12.2927 23.7584ZM11.9838 4.38467C11.4328 4.06936 10.7792 3.98506 10.1656 4.15014C9.55194 4.31522 9.02794 4.71629 8.70779 5.26595C7.0692 8.10895 6.62364 11.4848 7.46895 14.6521C8.31426 17.8194 10.3813 20.5192 13.2163 22.1588C13.7673 22.4741 14.4208 22.5584 15.0344 22.3933C15.6481 22.2282 16.1721 21.8272 16.4922 21.2775L16.6446 21.0136L13.435 18.0194L12.9495 18.3257C12.1886 18.8141 11.6342 19.1659 11.1207 18.5069C10.0719 17.2688 9.31212 15.8119 8.89665 14.2421C8.48119 12.6722 8.42045 11.0288 8.71886 9.43133C8.79168 8.64158 9.5007 8.66703 10.395 8.70345L10.9587 8.74097L12.2472 4.53675L11.9838 4.38467Z" fill="#7D7D7D"/>
</svg>
