<svg width="20" height="20" viewBox="0 0 20 20" fill="none" xmlns="http://www.w3.org/2000/svg">
<path d="M3.26533 19.1841L3.86133 18.8805L3.26533 19.1841ZM16.7347 19.1841L17.3307 19.4877L16.7347 19.1841ZM0.937333 7.8024H19.0627V6.44711H0.937333V7.8024ZM18.6667 7.39988V7.99485H20V7.39988H18.6667ZM16.5147 18.6447H3.48533V20H16.5147V18.6447ZM1.33333 7.99485V7.39988H0V7.99485H1.33333ZM3.86133 18.8805C2.1988 15.5006 1.33329 11.7737 1.33333 7.99485H0C0 11.9848 0.913333 15.9192 2.66933 19.4877L3.86133 18.8805ZM3.48533 18.6447C3.64533 18.6447 3.79067 18.7369 3.86133 18.8805L2.66933 19.4877C2.74524 19.6416 2.86175 19.771 3.00585 19.8615C3.14995 19.952 3.31596 19.9999 3.48533 20V18.6447ZM16.1387 18.8805C16.1736 18.8096 16.2273 18.75 16.2937 18.7083C16.3601 18.6667 16.4366 18.6446 16.5147 18.6447V20C16.8613 20 17.176 19.8021 17.3307 19.4877L16.1387 18.8805ZM18.6667 7.99485C18.6667 11.7734 17.8 15.5004 16.1387 18.8805L17.3307 19.4877C19.0861 15.9193 20 11.9845 20 7.99485H18.6667ZM19.0627 7.8024C18.9576 7.8024 18.8569 7.75999 18.7827 7.6845C18.7084 7.60902 18.6667 7.50663 18.6667 7.39988H20C20 7.14719 19.9012 6.90485 19.7255 6.72617C19.5497 6.54749 19.3113 6.44711 19.0627 6.44711V7.8024ZM0.937333 6.44711C0.688737 6.44711 0.450323 6.54749 0.274539 6.72617C0.0987545 6.90485 0 7.14719 0 7.39988H1.33333C1.33333 7.50663 1.29161 7.60902 1.21735 7.6845C1.14308 7.75999 1.04236 7.8024 0.937333 7.8024V6.44711ZM5.23867 7.47306L9.23867 0.696619L8.09333 0L4.09333 6.77644L5.23733 7.47306H5.23867ZM10.7613 0.696619L14.7613 7.47306L15.9053 6.77644L11.9053 0L10.7613 0.696619Z" fill="#5C5C5C"/>
</svg>
