<svg width="21" height="20" viewBox="0 0 21 20" fill="none" xmlns="http://www.w3.org/2000/svg">
<path d="M10.3705 3.66405L9.44108 2.68139C7.25934 0.37473 3.25885 1.17073 1.81473 4.07072C1.13675 5.43471 0.983783 7.40404 2.22178 9.91737C3.41441 12.3374 5.8956 15.236 10.3705 18.3933C14.8455 15.236 17.3254 12.3374 18.5193 9.91737C19.7573 7.40271 19.6056 5.43471 18.9264 4.07072C17.4822 1.17073 13.4818 0.373397 11.3 2.68006L10.3705 3.66405ZM10.3705 20C-9.50617 6.49071 4.25055 -4.05326 10.1424 1.52406C10.2202 1.59739 10.2967 1.67339 10.3705 1.75206C10.4437 1.67346 10.5198 1.59785 10.5987 1.52539C16.4893 -4.05592 30.2473 6.48938 10.3705 20Z" fill="#5C5C5C"/>
</svg>
