<svg width="130" height="60" viewBox="0 0 130 60" fill="none" xmlns="http://www.w3.org/2000/svg">
<path d="M59.2086 55.4917C45.4235 61.1994 38.9288 60.3338 30 49.9926C42.9195 38.0229 50.3182 38.5385 63.741 49.9926C76.5664 61.5948 84.5291 61.3882 100 49.9926C96.7126 44.3547 93.9096 42.2194 87.4101 39.9937M76.8345 44.493C91.6054 39.3188 96.5412 34.0467 95.9712 17.9973C86.2881 16.9217 80.322 17.7129 74.3863 24.4962M68.2734 40.9936C78.264 25.1097 75.8273 10.4985 64.2446 1C54.0125 12.4956 52.9259 19.5939 59.2086 33.4948C52.632 21.0182 47.0699 17.4154 33.0216 18.4972C32.0072 25.8397 32.7901 29.558 36.5468 35.4944" stroke="#E489A9" stroke-width="0.3" stroke-linecap="round" stroke-linejoin="round"/>
<path d="M10.7 43.06C8.24 44.28 5.1 43.8 2.96 41.66C0.3 39 0.2 34.82 2.72 32.3C5.12 29.9 9.02 29.88 11.68 32.16C11.84 32 11.98 31.82 12.12 31.66C10.88 30.6 9.28 29.96 7.52 29.96C3.58 29.96 0.4 33.16 0.4 37.1C0.4 41.04 3.58 44.22 7.52 44.22C8.54 44.22 9.52 44.02 10.4 43.62C11.02 43.34 11.6 42.98 12.12 42.54L12.02 42.18C11.62 42.54 11.18 42.84 10.7 43.06ZM19.063 29.96C15.123 29.96 11.943 33.16 11.943 37.1C11.943 41.04 15.123 44.22 19.063 44.22C23.003 44.22 26.203 41.04 26.203 37.1C26.203 33.16 23.003 29.96 19.063 29.96ZM23.863 41.9C21.343 44.42 17.163 44.32 14.503 41.66C11.843 39 11.743 34.82 14.263 32.3C16.783 29.78 20.983 29.88 23.623 32.54C26.283 35.18 26.383 39.38 23.863 41.9ZM32.7211 43.68V30.18H32.0411V43.68H27.6811V30.18H27.0211V44.02H33.5211C33.6211 43.9 33.7211 43.8 33.8211 43.68H32.7211ZM37.6783 35.82C37.4783 35.74 37.2783 35.68 37.0583 35.62C37.1583 35.58 37.2583 35.54 37.3583 35.5C38.2783 35 38.9183 34.02 38.9183 32.9C38.9183 31.28 37.5983 29.96 35.9783 29.96C35.5983 29.96 35.2383 30.04 34.8983 30.18C34.7983 30.22 34.7183 30.26 34.6383 30.3V44.02C35.0583 44.16 35.5183 44.22 35.9783 44.22C38.3983 44.22 40.3583 42.28 40.3583 39.86C40.3583 38.04 39.2383 36.48 37.6783 35.82ZM35.2983 30.42C35.5183 30.34 35.7583 30.3 35.9783 30.3C37.2383 30.3 38.2383 31.46 38.2383 32.9C38.2383 34.32 37.2383 35.5 35.9783 35.5H35.2983V30.42ZM35.9783 43.9C35.7583 43.9 35.5383 43.86 35.2983 43.82V35.82H35.9783C38.0183 35.82 39.6783 37.64 39.6783 39.86C39.6783 42.08 38.0183 43.9 35.9783 43.9ZM41.8413 43.68V35.64H44.3213C44.4013 35.52 44.4813 35.4 44.5613 35.3H41.8413V30.52H44.9413C45.0413 30.4 45.1413 30.3 45.2413 30.18H41.1813V44.02H45.2413C45.1413 43.9 45.0413 43.78 44.9413 43.68H41.8413ZM46.3441 30.18C46.2441 30.3 46.1441 30.4 46.0641 30.52H48.5841V44.02H49.2641V30.52H51.4841C51.5641 30.4 51.6641 30.3 51.7641 30.18H46.3441ZM57.9275 30.18L57.6075 31L55.7675 35.78L53.2475 42.26V30.18H52.5875V44.02H52.9475L53.2475 43.2L57.6075 31.94V44.02H58.2875V30.18H57.9275ZM64.7309 29.96C62.3109 29.96 60.3509 31.92 60.3509 34.34C60.3509 36.16 61.4709 37.74 63.0909 38.38L59.1109 44.02H59.7709L63.6309 38.56C63.9709 38.66 64.3509 38.7 64.7309 38.7C64.9509 38.7 65.1709 38.68 65.3909 38.64V44.02H66.0709V30.18C65.6509 30.04 65.1909 29.96 64.7309 29.96ZM64.7309 38.36C62.6909 38.36 61.0309 36.56 61.0309 34.34C61.0309 32.12 62.6909 30.3 64.7309 30.3C64.9509 30.3 65.1709 30.32 65.3909 30.38V38.3C65.1709 38.34 64.9509 38.36 64.7309 38.36ZM72.3338 35.64L76.5938 30.18H76.1538L72.1538 35.3V30.18H71.4938V44.02H72.1538V36.68L76.4138 44.02H77.1938L72.3338 35.64ZM83.7372 34.34C83.7372 31.92 81.7772 29.96 79.3572 29.96C78.8972 29.96 78.4372 30.04 78.0172 30.18V44.02H78.6772V38.64C78.9172 38.68 79.1372 38.7 79.3572 38.7C81.7772 38.7 83.7372 36.74 83.7372 34.34ZM83.0572 34.34C83.0572 36.56 81.3972 38.36 79.3572 38.36C79.1372 38.36 78.8972 38.34 78.6772 38.3V30.38C78.8972 30.32 79.1372 30.3 79.3572 30.3C81.3972 30.3 83.0572 32.12 83.0572 34.34ZM86.8633 29.96C86.6833 30.18 86.5233 30.4 86.3433 30.62C85.1433 35.08 83.9433 39.54 82.7633 44.02H83.1033C83.5633 42.3 84.0233 40.6 84.4833 38.9H88.5633C89.0233 40.6 89.4833 42.3 89.9233 44.02H90.6233C89.3833 39.34 88.1233 34.64 86.8633 29.96ZM84.5633 38.56L86.5233 31.28L88.4633 38.56H84.5633ZM100.739 43.06C98.2791 44.28 95.1391 43.8 92.9991 41.66C90.3391 39 90.2391 34.82 92.7591 32.3C95.1591 29.9 99.0591 29.88 101.719 32.16C101.879 32 102.019 31.82 102.159 31.66C100.919 30.6 99.3191 29.96 97.5591 29.96C93.6191 29.96 90.4391 33.16 90.4391 37.1C90.4391 41.04 93.6191 44.22 97.5591 44.22C98.5791 44.22 99.5591 44.02 100.439 43.62C101.059 43.34 101.639 42.98 102.159 42.54L102.059 42.18C101.659 42.54 101.219 42.84 100.739 43.06ZM109.102 29.96C105.162 29.96 101.982 33.16 101.982 37.1C101.982 41.04 105.162 44.22 109.102 44.22C113.042 44.22 116.242 41.04 116.242 37.1C116.242 33.16 113.042 29.96 109.102 29.96ZM113.902 41.9C111.382 44.42 107.202 44.32 104.542 41.66C101.882 39 101.782 34.82 104.302 32.3C106.822 29.78 111.022 29.88 113.662 32.54C116.322 35.18 116.422 39.38 113.902 41.9ZM115.348 30.18C115.248 30.3 115.148 30.4 115.068 30.52H117.588V44.02H118.268V30.52H120.488C120.568 30.4 120.668 30.3 120.768 30.18H115.348ZM129.071 30.18H128.391V44.02H129.071V30.18ZM122.931 35.5C122.711 35.5 122.491 35.5 122.251 35.54V30.18H121.591V44.02C122.011 44.16 122.471 44.22 122.931 44.22C125.351 44.22 127.311 42.28 127.311 39.86C127.311 37.44 125.351 35.5 122.931 35.5ZM122.931 43.9C122.711 43.9 122.471 43.86 122.251 43.82V35.9C122.471 35.86 122.711 35.82 122.931 35.82C124.971 35.82 126.631 37.64 126.631 39.86C126.631 42.08 124.971 43.9 122.931 43.9Z" fill="black"/>
</svg>
