<svg width="131" height="244" viewBox="0 0 131 244" fill="none" xmlns="http://www.w3.org/2000/svg">
<path d="M127.8 155.2H98.4V194H88.4V155.2H8.6V147.8L84.6 54H96L21.4 146.2H88.6V112H98.4V146.2H127.8V155.2Z" fill="#E489A9" fill-opacity="0.2"/>
<path d="M91.4286 159.524L94.2857 162.381L102.857 153.81" stroke="#785D51" stroke-width="1.7" stroke-linecap="round" stroke-linejoin="round"/>
<path d="M28.5714 131.905V140.476" stroke="#785D51" stroke-width="1.7" stroke-linecap="round" stroke-linejoin="round"/>
<path d="M36.1905 136.667V145.238" stroke="#785D51" stroke-width="1.7" stroke-linecap="round" stroke-linejoin="round"/>
<path d="M20 94.7619V144.286L62.8571 170M20 94.7619L62.8571 70L75.2381 77.4862L76.0235 77.961L89.5238 86.124L90.4762 86.6999M20 94.7619L35.2381 103.905M62.8571 170V159.524M62.8571 170L75.2381 162.381M62.8571 152.857V120.476M62.8571 120.476L99.0476 98.5714M62.8571 120.476L49.0476 112.19M103.81 136.667V94.7619L90.4762 86.6999M35.2381 103.905L54.2857 92.5521M35.2381 103.905L49.0476 112.19M35.2381 103.905V120.476L49.0476 129.048V112.857M77.3853 78.7845L60 89.1463L58.5677 90M49.0476 112.19L90.4762 86.6999" stroke="#785D51" stroke-width="1.7" stroke-linecap="round" stroke-linejoin="round"/>
<circle cx="97.1429" cy="157.619" r="22.0071" stroke="#785D51" stroke-width="1.7"/>
<path d="M98.8652 144.396C98.3014 144.323 97.7265 144.286 97.1428 144.286C89.779 144.286 83.8095 150.255 83.8095 157.619C83.8095 164.983 89.779 170.952 97.1428 170.952C104.507 170.952 110.476 164.983 110.476 157.619C110.476 152.347 107.417 147.79 102.976 145.626" stroke="#785D51" stroke-width="1.7"/>
</svg>
