<svg width="117" height="244" viewBox="0 0 117 244" fill="none" xmlns="http://www.w3.org/2000/svg">
<path d="M53.6 115C69.0667 115.4 80.8 119.2 88.8 126.4C96.9333 133.467 101 142.867 101 154.6C101 162.467 99.1333 169.467 95.4 175.6C91.6667 181.6 86.0667 186.333 78.6 189.8C71.2667 193.267 62.4 195 52 195C41.8667 195 32.3333 193.333 23.4 190C14.4667 186.533 7.53333 181.933 2.6 176.2L7.8 168.4C12.3333 173.467 18.4667 177.6 26.2 180.8C34.0667 184 42.6667 185.6 52 185.6C64.4 185.6 73.9333 182.867 80.6 177.4C87.2667 171.8 90.6 164.2 90.6 154.6C90.6 144.867 87.2 137.267 80.4 131.8C73.6 126.333 63.4 123.6 49.8 123.6H41V116.2L82.4 63.2H7.8V54H95.6V61.2L53.6 115Z" fill="#E489A9" fill-opacity="0.2"/>
<path d="M79.434 99.6415H25.6604M85.8868 99.6415H99.5094M116 109.679V104.642C116 101.88 113.761 99.6415 111 99.6415H99.5094M116 109.679H19.2075M116 109.679V119.717M19.2075 109.679V119.717M19.2075 109.679V107.528M19.2075 119.717H116M19.2075 119.717V123.302M116 119.717V158.453C116 161.214 113.761 163.453 111 163.453H24.2075C21.4461 163.453 19.2075 161.214 19.2075 158.453V144.811M27.8113 144.811H45.0189M93.7736 143.377V154.132M93.7736 154.132H84.3019C83.1973 154.132 82.3019 153.237 82.3019 152.132V144.66C82.3019 143.556 83.1973 142.66 84.3019 142.66H107.547C108.652 142.66 109.547 143.556 109.547 144.66V152.132C109.547 153.237 108.652 154.132 107.547 154.132H93.7736ZM99.5094 99.6415V86C99.5094 83.2386 97.2709 81 94.5094 81H55.7736M50.0377 81H7C4.23858 81 2 83.2386 2 86V113.264M2 119.717V139.811C2 142.573 4.23858 144.811 7 144.811H19.2075M19.2075 144.811V133.34M19.2075 133.34H9.16981M19.2075 133.34V123.302M19.2075 123.302H9.16981M19.2075 107.528V104.642C19.2075 101.88 21.4461 99.6415 24.2075 99.6415H25.6604M19.2075 107.528H11.8868C10.7822 107.528 9.88679 106.633 9.88679 105.528V93.7547C9.88679 92.6501 10.7822 91.7547 11.8868 91.7547H23.6604C24.7649 91.7547 25.6604 92.6501 25.6604 93.7547V99.6415" stroke="#785D51" stroke-width="1.7" stroke-linecap="round" stroke-linejoin="round"/>
<path d="M83.7358 129.755H94.4906" stroke="#785D51" stroke-width="1.7" stroke-linecap="round" stroke-linejoin="round"/>
<path d="M69.3962 129.755H80.1509" stroke="#785D51" stroke-width="1.7" stroke-linecap="round" stroke-linejoin="round"/>
<path d="M98.0755 129.755H108.83" stroke="#785D51" stroke-width="1.7" stroke-linecap="round" stroke-linejoin="round"/>
</svg>
