<svg width="60" height="61" viewBox="0 0 60 61" fill="none" xmlns="http://www.w3.org/2000/svg">
<path d="M10.3651 11.3016L1 26.2857M10.3651 11.3016L20.6667 26.2857M10.3651 11.3016H29.7976M59.0635 26.2857L49.2302 11.3016H29.7976M59.0635 26.2857L49.2302 37.0556M59.0635 26.2857H39.3968M1 26.2857L6.15079 32.373M1 26.2857H20.6667M20.6667 26.2857L29.7976 11.3016M20.6667 26.2857H39.3968M20.6667 26.2857L29.7976 60M29.7976 11.3016L39.3968 26.2857M39.3968 26.2857L49.2302 12.2381M39.3968 26.2857L29.7976 60M29.7976 60L43.6111 44.0794M29.7976 60L17.3889 45.0159M11.7698 32.373C11.4329 38.3726 9.79768 39.8887 4.74603 39.8651C9.65502 40.7272 11.074 42.2342 11.7698 47.3571C12.3311 41.8322 13.8865 40.2127 18.7937 39.8651C13.9849 39.8483 12.3882 38.2883 11.7698 32.373ZM49.2302 6.15079C52.8522 5.60195 53.7148 4.34137 53.9127 1C54.7359 4.88833 55.8153 6.09175 59.0635 6.15079C55.586 7.02695 54.2525 7.99533 53.9127 11.3016C54.1519 8.60758 53.6965 7.29155 49.2302 6.15079Z" stroke="#785D51" stroke-width="1.7" stroke-linecap="round" stroke-linejoin="round"/>
<circle cx="46.4064" cy="40.0496" r="0.908129" fill="#785D51"/>
</svg>
