<svg width="61" height="61" viewBox="0 0 61 61" fill="none" xmlns="http://www.w3.org/2000/svg">
<path d="M58.3541 38.4596C58.2801 38.4592 58.2065 38.4493 58.1349 38.4304C58.0257 38.4016 57.9233 38.3516 57.8334 38.2832C57.7436 38.2148 57.668 38.1294 57.6112 38.0319C57.5543 37.9343 57.5173 37.8265 57.5021 37.7146C57.4869 37.6027 57.4939 37.4889 57.5227 37.3797C57.9702 35.6759 58.2609 33.9347 58.3911 32.178C58.4126 31.9541 58.5209 31.7475 58.6929 31.6026C58.8649 31.4577 59.0868 31.3859 59.3111 31.4026C59.5353 31.4194 59.7441 31.5234 59.8926 31.6923C60.0412 31.8611 60.1176 32.0815 60.1056 32.3061C59.9678 34.1691 59.6599 36.0156 59.1856 37.8225C59.1365 38.0055 59.0284 38.1671 58.8781 38.2823C58.7277 38.3975 58.5436 38.4598 58.3541 38.4596Z" fill="#785D51"/>
<path d="M30.0926 60.1855C24.6729 60.1855 19.3538 58.7218 14.6971 55.9491C10.0404 53.1763 6.21898 49.1975 3.63638 44.4327C1.05377 39.6679 -0.194123 34.2941 0.024498 28.8789C0.243119 23.4636 1.92014 18.2079 4.87843 13.6668C7.83673 9.12574 11.9665 5.46788 16.8315 3.07954C21.6966 0.691214 27.1163 -0.338924 32.5184 0.0979299C37.9204 0.534784 43.1042 2.42241 47.5223 5.56146C51.9403 8.7005 55.4287 12.9744 57.6188 17.9318C57.6645 18.0352 57.6893 18.1464 57.6919 18.2593C57.6945 18.3723 57.6748 18.4846 57.634 18.5899C57.5932 18.6952 57.5321 18.7914 57.4541 18.8731C57.3761 18.9548 57.2828 19.0203 57.1795 19.0659C57.0762 19.1115 56.9649 19.1364 56.852 19.139C56.7391 19.1416 56.6268 19.1219 56.5215 19.0811C56.4161 19.0403 56.3199 18.9792 56.2382 18.9012C56.1566 18.8232 56.091 18.7299 56.0454 18.6266C53.4143 12.6758 48.8175 7.81032 43.0255 4.84579C37.2336 1.88126 30.5986 0.997845 24.2328 2.34364C17.867 3.68943 12.1573 7.18262 8.06076 12.2377C3.96424 17.2927 1.72994 23.6023 1.73238 30.1088C1.73482 36.6154 3.97385 42.9233 8.07416 47.9753C12.1745 53.0272 17.8868 56.5161 24.2536 57.8571C30.6205 59.1982 37.2548 58.3098 43.0445 55.3409C48.8342 52.372 53.4273 47.5031 56.054 41.5504C56.1461 41.3417 56.3174 41.1782 56.5301 41.0958C56.7427 41.0134 56.9794 41.0189 57.1881 41.111C57.3967 41.2031 57.5602 41.3744 57.6426 41.587C57.725 41.7997 57.7196 42.0364 57.6274 42.2451C55.2693 47.5816 51.4116 52.118 46.5234 55.303C41.6351 58.4879 35.9269 60.1842 30.0926 60.1855Z" fill="#785D51"/>
<path d="M59.2471 28.8035C59.0297 28.8041 58.8201 28.7223 58.6606 28.5746C58.501 28.4269 58.4034 28.2242 58.3873 28.0073C58.2585 26.2484 57.9652 24.5055 57.5112 22.8013C57.4819 22.6922 57.4745 22.5785 57.4892 22.4665C57.5039 22.3545 57.5405 22.2466 57.597 22.1488C57.6534 22.051 57.7286 21.9653 57.8182 21.8965C57.9077 21.8277 58.01 21.7773 58.1191 21.7481C58.2281 21.7188 58.3419 21.7113 58.4538 21.7261C58.5658 21.7408 58.6738 21.7774 58.7716 21.8339C58.8694 21.8903 58.9551 21.9655 59.0239 22.055C59.0926 22.1446 59.1431 22.2469 59.1723 22.3559C59.6541 24.1639 59.9652 26.0131 60.1017 27.8792C60.1189 28.1053 60.046 28.329 59.899 28.5017C59.7519 28.6743 59.5427 28.7818 59.3167 28.8009L59.2471 28.8035Z" fill="#785D51"/>
<path d="M30.093 54.1657C25.3316 54.1657 20.6771 52.7538 16.7181 50.1085C12.7591 47.4632 9.67344 43.7033 7.85132 39.3043C6.0292 34.9053 5.55245 30.0648 6.48136 25.3949C7.41027 20.7249 9.70311 16.4353 13.0699 13.0685C16.4368 9.70165 20.7264 7.4088 25.3963 6.47989C30.0663 5.55099 34.9068 6.02773 39.3058 7.84985C43.7048 9.67197 47.4646 12.7576 50.1099 16.7166C52.7552 20.6756 54.1672 25.3301 54.1672 30.0915C54.1601 36.4742 51.6215 42.5935 47.1082 47.1067C42.595 51.62 36.4757 54.1587 30.093 54.1657ZM30.093 7.7369C25.6717 7.7369 21.3496 9.04798 17.6734 11.5043C13.9972 13.9607 11.132 17.452 9.44001 21.5368C7.74804 25.6215 7.30534 30.1163 8.1679 34.4527C9.03046 38.7891 11.1595 42.7723 14.2859 45.8986C17.4122 49.025 21.3954 51.154 25.7318 52.0166C30.0682 52.8791 34.5629 52.4364 38.6477 50.7445C42.7325 49.0525 46.2238 46.1873 48.6802 42.5111C51.1365 38.8349 52.4476 34.5128 52.4476 30.0915C52.441 24.1647 50.0837 18.4826 45.8928 14.2917C41.7019 10.1008 36.0198 7.7435 30.093 7.7369Z" fill="#785D51"/>
<path d="M30.0933 14.2592C29.8652 14.2592 29.6465 14.1686 29.4853 14.0074C29.324 13.8462 29.2335 13.6275 29.2335 13.3994V11.176C29.2335 10.948 29.324 10.7293 29.4853 10.568C29.6465 10.4068 29.8652 10.3162 30.0933 10.3162C30.3213 10.3162 30.54 10.4068 30.7012 10.568C30.8625 10.7293 30.9531 10.948 30.9531 11.176V13.3994C30.9531 13.6275 30.8625 13.8462 30.7012 14.0074C30.54 14.1686 30.3213 14.2592 30.0933 14.2592Z" fill="#785D51"/>
<path d="M30.0933 49.8667C29.8652 49.8667 29.6465 49.7761 29.4853 49.6149C29.324 49.4536 29.2335 49.2349 29.2335 49.0069V46.7835C29.2335 46.5555 29.324 46.3368 29.4853 46.1755C29.6465 46.0143 29.8652 45.9237 30.0933 45.9237C30.3213 45.9237 30.54 46.0143 30.7012 46.1755C30.8625 46.3368 30.9531 46.5555 30.9531 46.7835V49.0069C30.9531 49.2349 30.8625 49.4536 30.7012 49.6149C30.54 49.7761 30.3213 49.8667 30.0933 49.8667Z" fill="#785D51"/>
<path d="M41.8965 19.1477C41.7265 19.1477 41.5603 19.0972 41.419 19.0028C41.2776 18.9083 41.1674 18.774 41.1024 18.6169C41.0373 18.4598 41.0203 18.287 41.0534 18.1202C41.0866 17.9535 41.1685 17.8003 41.2887 17.68L42.8604 16.1083C42.9397 16.0262 43.0345 15.9607 43.1394 15.9157C43.2443 15.8706 43.3572 15.8469 43.4713 15.8459C43.5855 15.8449 43.6987 15.8667 43.8044 15.9099C43.91 15.9531 44.006 16.017 44.0868 16.0977C44.1675 16.1784 44.2313 16.2744 44.2746 16.3801C44.3178 16.4857 44.3396 16.599 44.3386 16.7131C44.3376 16.8273 44.3138 16.9401 44.2688 17.045C44.2237 17.1499 44.1582 17.2448 44.0761 17.3241L42.5044 18.8958C42.3432 19.057 42.1245 19.1477 41.8965 19.1477Z" fill="#785D51"/>
<path d="M16.7181 44.3262C16.5481 44.3261 16.3819 44.2757 16.2405 44.1812C16.0992 44.0867 15.989 43.9525 15.9239 43.7954C15.8589 43.6383 15.8418 43.4654 15.875 43.2987C15.9082 43.1319 15.99 42.9787 16.1102 42.8585L17.6819 41.2868C17.8441 41.1302 18.0613 41.0435 18.2867 41.0455C18.5121 41.0474 18.7278 41.1379 18.8872 41.2973C19.0466 41.4567 19.137 41.6723 19.139 41.8978C19.141 42.1232 19.0543 42.3404 18.8977 42.5025L17.326 44.0742C17.1648 44.2355 16.9461 44.3261 16.7181 44.3262Z" fill="#785D51"/>
<path d="M43.4679 44.3262C43.2399 44.3261 43.0212 44.2355 42.86 44.0742L41.2883 42.5025C41.1317 42.3404 41.045 42.1232 41.047 41.8978C41.049 41.6723 41.1394 41.4567 41.2988 41.2973C41.4582 41.1379 41.6739 41.0474 41.8993 41.0455C42.1247 41.0435 42.3419 41.1302 42.5041 41.2868L44.0758 42.8585C44.196 42.9787 44.2778 43.1319 44.311 43.2987C44.3442 43.4654 44.3271 43.6383 44.2621 43.7954C44.197 43.9525 44.0868 44.0867 43.9455 44.1812C43.8041 44.2757 43.6379 44.3261 43.4679 44.3262Z" fill="#785D51"/>
<path d="M18.2901 19.1477C18.0621 19.1477 17.8434 19.057 17.6822 18.8958L16.1105 17.3241C16.0284 17.2448 15.9629 17.1499 15.9178 17.045C15.8728 16.9401 15.849 16.8273 15.8481 16.7131C15.8471 16.599 15.8688 16.4857 15.912 16.3801C15.9553 16.2744 16.0191 16.1784 16.0999 16.0977C16.1806 16.017 16.2766 15.9531 16.3822 15.9099C16.4879 15.8667 16.6011 15.8449 16.7153 15.8459C16.8294 15.8469 16.9423 15.8706 17.0472 15.9157C17.1521 15.9607 17.2469 16.0262 17.3263 16.1083L18.898 17.68C19.0182 17.8003 19.1 17.9535 19.1332 18.1202C19.1663 18.287 19.1493 18.4598 19.0843 18.6169C19.0192 18.774 18.909 18.9083 18.7677 19.0028C18.6263 19.0972 18.4601 19.1477 18.2901 19.1477Z" fill="#785D51"/>
<path d="M49.0085 30.9509H46.785C46.557 30.9509 46.3383 30.8603 46.1771 30.699C46.0158 30.5378 45.9252 30.3191 45.9252 30.0911C45.9252 29.863 46.0158 29.6443 46.1771 29.4831C46.3383 29.3219 46.557 29.2313 46.785 29.2313H49.0085C49.2365 29.2313 49.4552 29.3219 49.6164 29.4831C49.7777 29.6443 49.8683 29.863 49.8683 30.0911C49.8683 30.3191 49.7777 30.5378 49.6164 30.699C49.4552 30.8603 49.2365 30.9509 49.0085 30.9509Z" fill="#785D51"/>
<path d="M13.4035 30.9509H11.1775C10.9495 30.9509 10.7308 30.8603 10.5696 30.699C10.4083 30.5378 10.3177 30.3191 10.3177 30.0911C10.3177 29.863 10.4083 29.6443 10.5696 29.4831C10.7308 29.3219 10.9495 29.2313 11.1775 29.2313H13.4035C13.6316 29.2313 13.8503 29.3219 14.0115 29.4831C14.1728 29.6443 14.2633 29.863 14.2633 30.0911C14.2633 30.3191 14.1728 30.5378 14.0115 30.699C13.8503 30.8603 13.6316 30.9509 13.4035 30.9509Z" fill="#785D51"/>
<path d="M26.5946 34.539C26.4245 34.5389 26.2583 34.4885 26.117 34.394C25.9756 34.2995 25.8655 34.1653 25.8004 34.0082C25.7353 33.8511 25.7183 33.6783 25.7515 33.5115C25.7846 33.3447 25.8665 33.1915 25.9867 33.0713L29.2238 29.8342V18.9148C29.2238 18.6868 29.3144 18.4681 29.4756 18.3069C29.6369 18.1456 29.8556 18.055 30.0836 18.055C30.3116 18.055 30.5303 18.1456 30.6916 18.3069C30.8528 18.4681 30.9434 18.6868 30.9434 18.9148V30.191C30.9434 30.419 30.8527 30.6377 30.6915 30.7989L27.2024 34.2871C27.0412 34.4483 26.8226 34.5389 26.5946 34.539Z" fill="#785D51"/>
</svg>
