<svg width="116" height="244" viewBox="0 0 116 244" fill="none" xmlns="http://www.w3.org/2000/svg">
<path d="M68.2 54V194H58V63.2H23.8V54H68.2Z" fill="#E489A9" fill-opacity="0.2"/>
<path d="M20.1275 78H4.8255V152.215M4.8255 152.215H1V166.752H15.5369M4.8255 152.215H111.174M23.1879 166.752H115V152.215H111.174M27.0134 78H111.174V152.215M95.8725 141.503H104.289V83.3557H12.4765V141.503H88.9866" stroke="#785D51" stroke-width="1.7" stroke-linecap="round" stroke-linejoin="round"/>
<path d="M70.6242 93.302H96.6376" stroke="#785D51" stroke-linecap="round" stroke-linejoin="round"/>
<path d="M70.6242 108.604H96.6376" stroke="#785D51" stroke-linecap="round" stroke-linejoin="round"/>
<path d="M70.6242 123.906H96.6376" stroke="#785D51" stroke-linecap="round" stroke-linejoin="round"/>
<path d="M70.6242 99.4229H87.4564" stroke="#785D51" stroke-linecap="round" stroke-linejoin="round"/>
<path d="M70.6242 114.725H87.4564" stroke="#785D51" stroke-linecap="round" stroke-linejoin="round"/>
<path d="M70.6242 130.027H87.4564" stroke="#785D51" stroke-linecap="round" stroke-linejoin="round"/>
<rect x="55.8221" y="92.2719" width="8.18121" height="8.18121" stroke="#785D51" stroke-linecap="round" stroke-linejoin="round"/>
<rect x="55.8221" y="107.574" width="8.18121" height="8.18121" stroke="#785D51" stroke-linecap="round" stroke-linejoin="round"/>
<rect x="55.8221" y="122.876" width="8.18121" height="8.18121" stroke="#785D51" stroke-linecap="round" stroke-linejoin="round"/>
<path d="M20.1275 100.953H24.7181L27.7785 114.725M27.7785 114.725V121.611H40.7852M27.7785 114.725H43.8456L46.1409 104.013H32.3691" stroke="#785D51" stroke-linecap="round" stroke-linejoin="round"/>
<circle cx="30.8389" cy="122.376" r="1.5302" fill="#785D51"/>
<circle cx="38.4899" cy="122.376" r="1.5302" fill="#785D51"/>
</svg>
