<svg width="61" height="61" viewBox="0 0 61 61" fill="none" xmlns="http://www.w3.org/2000/svg">
<path d="M1 5.28571C3.59898 5.27509 4.46703 4.28348 5.28571 1C5.6982 4.26143 6.86933 5.18264 9.57143 5.28571C6.32463 5.24022 5.45323 6.60623 5.28571 10.5238C5.00204 6.7618 4.32429 5.38855 1 5.28571Z" stroke="#785D51" stroke-width="1.2" stroke-linecap="round" stroke-linejoin="round"/>
<path d="M51.4762 5.28571C54.0752 5.27509 54.9432 4.28348 55.7619 1C56.1744 4.26143 57.3455 5.18264 60.0476 5.28571C56.8008 5.24022 55.9294 6.60623 55.7619 10.5238C55.4782 6.7618 54.8005 5.38855 51.4762 5.28571Z" stroke="#785D51" stroke-width="1.2" stroke-linecap="round" stroke-linejoin="round"/>
<path d="M16.1357 44.9683C16.1357 40.0298 20.0547 35.9823 24.9907 35.8231L30.0484 35.6599L36.039 35.8415C40.9823 35.9913 44.9119 40.0418 44.9119 44.9873V60.15H16.1357V44.9683Z" stroke="#785D51" stroke-width="1.7"/>
<circle cx="30.5238" cy="26.7143" r="8.67381" stroke="#785D51" stroke-width="1.7"/>
<path d="M4.80951 60.0476H8.61903" stroke="#785D51" stroke-width="1.7"/>
<path d="M30.5238 5.7619L30.5238 9.57143" stroke="#785D51" stroke-width="1.7"/>
<path d="M56.0747 60.0476H52.2652" stroke="#785D51" stroke-width="1.7"/>
<path d="M4.80951 49.5714H8.61903" stroke="#785D51" stroke-width="1.7"/>
<path d="M56.0747 49.5714H52.2652" stroke="#785D51" stroke-width="1.7"/>
<path d="M4.80951 39.0952H8.61903" stroke="#785D51" stroke-width="1.7"/>
<path d="M56.0747 39.0952H52.2652" stroke="#785D51" stroke-width="1.7"/>
<path d="M5.7619 28.619L9.44162 29.605" stroke="#785D51" stroke-width="1.7"/>
<path d="M55.1223 28.619L51.4426 29.605" stroke="#785D51" stroke-width="1.7"/>
<path d="M9.76172 17.6834L13.0609 19.5882" stroke="#785D51" stroke-width="1.7"/>
<path d="M51.1225 17.6834L47.8234 19.5882" stroke="#785D51" stroke-width="1.7"/>
<path d="M18.1429 9.57141L20.8366 12.2652" stroke="#785D51" stroke-width="1.7"/>
<path d="M42.7414 9.57141L40.0476 12.2652" stroke="#785D51" stroke-width="1.7"/>
</svg>
