<svg width="115" height="244" viewBox="0 0 115 244" fill="none" xmlns="http://www.w3.org/2000/svg">
<path d="M104.4 184.8V194H8.2V186.8L67.4 128C75.1333 120.267 80.3333 113.667 83 108.2C85.8 102.6 87.2 96.8667 87.2 91C87.2 82.0667 84.1333 75.0667 78 70C72 64.9333 63.2667 62.4 51.8 62.4C43 62.4 35.2667 63.7333 28.6 66.4C22.0667 69.0667 16.4 73.1333 11.6 78.6L4.4 72.2C9.73333 66.0667 16.4667 61.3333 24.6 58C32.8667 54.6667 42.2 53 52.6 53C66.3333 53 77.2667 56.3333 85.4 63C93.5333 69.6667 97.6 78.6667 97.6 90C97.6 97.2 96 104.067 92.8 110.6C89.6 117.133 83.6 124.733 74.8 133.4L23.2 184.8H104.4Z" fill="#E489A9" fill-opacity="0.2"/>
<path d="M13 114.575L51.933 97.0836" stroke="#785D51" stroke-width="1.7" stroke-linejoin="round"/>
<path d="M114 114.575L75.067 97.0836" stroke="#785D51" stroke-width="1.7" stroke-linejoin="round"/>
<path d="M23.7206 173.257V109.497" stroke="#785D51" stroke-width="1.7" stroke-linejoin="round"/>
<path d="M103.279 173.257V109.497" stroke="#785D51" stroke-width="1.7" stroke-linejoin="round"/>
<path d="M44.0335 146.738V159.715L47.9832 155.201L52.4972 159.715V146.738M44.0335 146.738H48.2653M44.0335 146.738H39.62M52.4972 146.738H48.2653M52.4972 146.738H63.2178M82.9664 146.738H94.2514V172.129H63.2178M82.9664 146.738V159.715L78.4525 155.201L73.9385 159.715V146.738M82.9664 146.738H79.0167M73.9385 146.738H79.0167M73.9385 146.738H70.2471M48.2653 146.738V123.039H50.9958M79.0167 146.738V123.039H67.7318M58.7039 123.039V137.71L63.2178 130.939L67.7318 137.71V123.039M58.7039 123.039H67.7318M58.7039 123.039H54.496M63.2178 146.738V172.129M63.2178 146.738H66.7468M63.2178 172.129H32.7486V146.738H36.1198" stroke="#785D51" stroke-width="1.2" stroke-linejoin="round"/>
<path d="M76.917 91.4816C71.7799 103.049 63.2179 116.268 63.2179 116.268C63.2179 116.268 54.656 103.049 49.5189 91.4816C44.3817 79.9146 52.9436 70 63.2179 70C73.4923 70 82.0542 79.9146 76.917 91.4816Z" stroke="#785D51" stroke-width="1.7" stroke-linecap="round" stroke-linejoin="round"/>
<path d="M65.3498 77.3229C65.065 77.2335 64.7712 77.1614 64.4695 77.1079C60.6627 76.4325 57.0292 78.971 56.3538 82.7778C55.6784 86.5846 58.2169 90.2182 62.0237 90.8936C65.8305 91.5689 69.4641 89.0304 70.1394 85.2236C70.623 82.4983 69.4592 79.8617 67.3622 78.3358" stroke="#785D51" stroke-width="1.7"/>
</svg>
