<svg width="47" height="61" viewBox="0 0 47 61" fill="none" xmlns="http://www.w3.org/2000/svg">
<circle cx="23.3219" cy="23.2718" r="16.7226" stroke="#785D51" stroke-width="1.7" stroke-linecap="round" stroke-linejoin="round"/>
<path d="M19.9974 0.94986C9.2461 2.55525 1 11.8276 1 23.0259C1 35.3539 10.9939 45.3478 23.3219 45.3478C35.6499 45.3478 45.6438 35.3539 45.6438 23.0259C45.6438 11.8276 37.3977 2.55525 26.6464 0.94986" stroke="#785D51" stroke-width="1.7" stroke-linecap="round" stroke-linejoin="round"/>
<ellipse cx="23.7827" cy="0.935705" rx="0.935705" ry="0.935705" fill="#785D51"/>
<path d="M19.0475 18.5224L12.3984 19.4723L18.0976 24.2216L16.6728 31.8206L22.847 27.5462L29.496 31.8206L28.0712 24.2216L33.2955 19.4723L26.1715 18.5224L22.847 11.8734L19.0475 18.5224Z" stroke="#785D51" stroke-width="1.7" stroke-linecap="round" stroke-linejoin="round"/>
<path d="M8.59894 39.8945L1.94986 52.2428L10.4987 50.343L13.8232 59.3668L21.8971 45.5937" stroke="#785D51" stroke-width="1.7" stroke-linecap="round" stroke-linejoin="round"/>
<path d="M37.9873 40.5277L44.6364 52.876L36.0875 50.9763L32.763 60L24.6891 46.2269" stroke="#785D51" stroke-width="1.7" stroke-linecap="round" stroke-linejoin="round"/>
</svg>
